o floor
usemtl floor
v -1.0099999904632568 0 0.9900000095367432
v 1 0 0.9900000095367432
v 1 0 -1.0399999618530273
v -1.0099999904632568 0 0.9900000095367432
v 1 0 -1.0399999618530273
v -0.9900000095367432 0 -1.0399999618530273
vn 0 1 0
vn 0 1 0
vn 0 1 0
vn 0 1 0
vn 0 1 0
vn 0 1 0
f 1//1 2//2 3//3
f 4//4 5//5 6//6
o ceiling
usemtl ceiling
v -1.0199999809265137 1.9900000095367432 0.9900000095367432
v -1.0199999809265137 1.9900000095367432 -1.0399999618530273
v 1 1.9900000095367432 -1.0399999618530273
v -1.0199999809265137 1.9900000095367432 0.9900000095367432
v 1 1.9900000095367432 -1.0399999618530273
v 1 1.9900000095367432 0.9900000095367432
vn 0 -1 0
vn 0 -1 0
vn 0 -1 0
vn 0 -1 0
vn 0 -1 0
vn 0 -1 0
f 7//7 8//8 9//9
f 10//10 11//11 12//12
o backWall
usemtl backWall
v -0.9900000095367432 0 -1.0399999618530273
v 1 0 -1.0399999618530273
v 1 1.9900000095367432 -1.0399999618530273
v -0.9900000095367432 0 -1.0399999618530273
v 1 1.9900000095367432 -1.0399999618530273
v -1.0199999809265137 1.9900000095367432 -1.0399999618530273
vn 0 0 1
vn 0 0 1
vn 0 0 1
vn 0 0 1
vn 0 0 1
vn 0 0 1
f 13//13 14//14 15//15
f 16//16 17//17 18//18
o rightWall
usemtl rightWall
v 1 0 -1.0399999618530273
v 1 0 0.9900000095367432
v 1 1.9900000095367432 0.9900000095367432
v 1 0 -1.0399999618530273
v 1 1.9900000095367432 0.9900000095367432
v 1 1.9900000095367432 -1.0399999618530273
vn -1 0 0
vn -1 0 0
vn -1 0 0
vn -1 0 0
vn -1 0 0
vn -1 0 0
f 19//19 20//20 21//21
f 22//22 23//23 24//24
o leftWall
usemtl leftWall
v -1 0 0.9900000095367432
v -1 0 -1.0399999618530273
v -1 1.9900000095367432 -1.0399999618530273
v -1 0 0.9900000095367432
v -1 1.9900000095367432 -1.0399999618530273
v -1 1.9900000095367432 0.9900000095367432
vn 1 0 0
vn 1 0 0
vn 1 0 0
vn 1 0 0
vn 1 0 0
vn 1 0 0
f 25//25 26//26 27//27
f 28//28 29//29 30//30
o shortBox
usemtl shortBox
v 0.5299999713897705 0.6000000238418579 0.75
v 0.699999988079071 0.6000000238418579 0.17000000178813934
v 0.12999999523162842 0.6000000238418579 0
v 0.5299999713897705 0.6000000238418579 0.75
v 0.12999999523162842 0.6000000238418579 0
v -0.05000000074505806 0.6000000238418579 0.5699999928474426
v -0.05000000074505806 0 0.5699999928474426
v -0.05000000074505806 0.6000000238418579 0.5699999928474426
v 0.12999999523162842 0.6000000238418579 0
v -0.05000000074505806 0 0.5699999928474426
v 0.12999999523162842 0.6000000238418579 0
v 0.12999999523162842 0 0
v 0.5299999713897705 0 0.75
v 0.5299999713897705 0.6000000238418579 0.75
v -0.05000000074505806 0.6000000238418579 0.5699999928474426
v 0.5299999713897705 0 0.75
v -0.05000000074505806 0.6000000238418579 0.5699999928474426
v -0.05000000074505806 0 0.5699999928474426
v 0.699999988079071 0 0.17000000178813934
v 0.699999988079071 0.6000000238418579 0.17000000178813934
v 0.5299999713897705 0.6000000238418579 0.75
v 0.699999988079071 0 0.17000000178813934
v 0.5299999713897705 0.6000000238418579 0.75
v 0.5299999713897705 0 0.75
v 0.12999999523162842 0 0
v 0.12999999523162842 0.6000000238418579 0
v 0.699999988079071 0.6000000238418579 0.17000000178813934
v 0.12999999523162842 0 0
v 0.699999988079071 0.6000000238418579 0.17000000178813934
v 0.699999988079071 0 0.17000000178813934
vn 0 1 0
vn 0 1 0
vn 0 1 0
vn 0 1 0
vn 0 1 0
vn 0 1 0
vn -0.95358266333249 0 -0.30113137364232795
vn -0.95358266333249 0 -0.30113137364232795
vn -0.95358266333249 0 -0.30113137364232795
vn -0.95358266333249 0 -0.30113137364232795
vn -0.95358266333249 0 -0.30113137364232795
vn -0.95358266333249 0 -0.30113137364232795
vn -0.2963992120603031 0 0.9550641376839732
vn -0.2963992120603031 0 0.9550641376839732
vn -0.2963992120603031 0 0.9550641376839732
vn -0.2963992120603031 0 0.9550641376839732
vn -0.2963992120603031 0 0.9550641376839732
vn -0.2963992120603031 0 0.9550641376839732
vn 0.959628539724473 0 0.2812704494721678
vn 0.959628539724473 0 0.2812704494721678
vn 0.959628539724473 0 0.2812704494721678
vn 0.959628539724473 0 0.2812704494721678
vn 0.959628539724473 0 0.2812704494721678
vn 0.959628539724473 0 0.2812704494721678
vn 0.2858051307567558 0 -0.9582877580524097
vn 0.2858051307567558 0 -0.9582877580524097
vn 0.2858051307567558 0 -0.9582877580524097
vn 0.2858051307567558 0 -0.9582877580524097
vn 0.2858051307567558 0 -0.9582877580524097
vn 0.2858051307567558 0 -0.9582877580524097
f 31//31 32//32 33//33
f 34//34 35//35 36//36
f 37//37 38//38 39//39
f 40//40 41//41 42//42
f 43//43 44//44 45//45
f 46//46 47//47 48//48
f 49//49 50//50 51//51
f 52//52 53//53 54//54
f 55//55 56//56 57//57
f 58//58 59//59 60//60
o tallBox
usemtl tallBox
v -0.5299999713897705 1.2000000476837158 0.09000000357627869
v 0.03999999910593033 1.2000000476837158 -0.09000000357627869
v -0.14000000059604645 1.2000000476837158 -0.6700000166893005
v -0.5299999713897705 1.2000000476837158 0.09000000357627869
v -0.14000000059604645 1.2000000476837158 -0.6700000166893005
v -0.7099999785423279 1.2000000476837158 -0.49000000953674316
v -0.5299999713897705 0 0.09000000357627869
v -0.5299999713897705 1.2000000476837158 0.09000000357627869
v -0.7099999785423279 1.2000000476837158 -0.49000000953674316
v -0.5299999713897705 0 0.09000000357627869
v -0.7099999785423279 1.2000000476837158 -0.49000000953674316
v -0.7099999785423279 0 -0.49000000953674316
v -0.7099999785423279 0 -0.49000000953674316
v -0.7099999785423279 1.2000000476837158 -0.49000000953674316
v -0.14000000059604645 1.2000000476837158 -0.6700000166893005
v -0.7099999785423279 0 -0.49000000953674316
v -0.14000000059604645 1.2000000476837158 -0.6700000166893005
v -0.14000000059604645 0 -0.6700000166893005
v -0.14000000059604645 0 -0.6700000166893005
v -0.14000000059604645 1.2000000476837158 -0.6700000166893005
v 0.03999999910593033 1.2000000476837158 -0.09000000357627869
v -0.14000000059604645 0 -0.6700000166893005
v 0.03999999910593033 1.2000000476837158 -0.09000000357627869
v 0.03999999910593033 0 -0.09000000357627869
v 0.03999999910593033 0 -0.09000000357627869
v 0.03999999910593033 1.2000000476837158 -0.09000000357627869
v -0.5299999713897705 1.2000000476837158 0.09000000357627869
v 0.03999999910593033 0 -0.09000000357627869
v -0.5299999713897705 1.2000000476837158 0.09000000357627869
v -0.5299999713897705 0 0.09000000357627869
vn 0 1 0
vn 0 1 0
vn 0 1 0
vn 0 1 0
vn 0 1 0
vn 0 1 0
vn -0.9550641376839732 0 0.2963992120603031
vn -0.9550641376839732 0 0.2963992120603031
vn -0.9550641376839732 0 0.2963992120603031
vn -0.9550641376839732 0 0.2963992120603031
vn -0.9550641376839732 0 0.2963992120603031
vn -0.9550641376839732 0 0.2963992120603031
vn -0.30113137364232795 0 -0.95358266333249
vn -0.30113137364232795 0 -0.95358266333249
vn -0.30113137364232795 0 -0.95358266333249
vn -0.30113137364232795 0 -0.95358266333249
vn -0.30113137364232795 0 -0.95358266333249
vn -0.30113137364232795 0 -0.95358266333249
vn 0.9550641376839732 0 -0.2963992120603031
vn 0.9550641376839732 0 -0.2963992120603031
vn 0.9550641376839732 0 -0.2963992120603031
vn 0.9550641376839732 0 -0.2963992120603031
vn 0.9550641376839732 0 -0.2963992120603031
vn 0.9550641376839732 0 -0.2963992120603031
vn 0.30113137364232795 0 0.95358266333249
vn 0.30113137364232795 0 0.95358266333249
vn 0.30113137364232795 0 0.95358266333249
vn 0.30113137364232795 0 0.95358266333249
vn 0.30113137364232795 0 0.95358266333249
vn 0.30113137364232795 0 0.95358266333249
f 61//61 62//62 63//63
f 64//64 65//65 66//66
f 67//67 68//68 69//69
f 70//70 71//71 72//72
f 73//73 74//74 75//75
f 76//76 77//77 78//78
f 79//79 80//80 81//81
f 82//82 83//83 84//84
f 85//85 86//86 87//87
f 88//88 89//89 90//90
o ceilingLight
usemtl area_light
v -0.23999999463558197 1.9800000190734863 0.1599999964237213
v -0.23999999463558197 1.9800000190734863 -0.2199999988079071
v 0.23000000417232513 1.9800000190734863 -0.2199999988079071
v -0.23999999463558197 1.9800000190734863 0.1599999964237213
v 0.23000000417232513 1.9800000190734863 -0.2199999988079071
v 0.23000000417232513 1.9800000190734863 0.1599999964237213
vn 0 -1 0
vn 0 -1 0
vn 0 -1 0
vn 0 -1 0
vn 0 -1 0
vn 0 -1 0
f 91//91 92//92 93//93
f 94//94 95//95 96//96
